<svg width="456" height="456" viewBox="27 27 456 456" fill="none" xmlns="http://www.w3.org/2000/svg">
<circle cx="99.2" cy="42.5" r="10.5" fill="#3f37b8"/>
<circle cx="127.5" cy="42.5" r="10.5" fill="#473ece"/>
<circle cx="155.8" cy="42.5" r="10.5" fill="#443cc6"/>
<circle cx="184.2" cy="42.5" r="10.5" fill="#3831a7"/>
<circle cx="212.5" cy="42.5" r="10.5" fill="#3831a5"/>
<circle cx="240.8" cy="42.5" r="10.5" fill="#3932a8"/>
<circle cx="269.2" cy="42.5" r="10.5" fill="#4139bf"/>
<circle cx="297.5" cy="42.5" r="10.5" fill="#3a33ab"/>
<circle cx="325.8" cy="42.5" r="10.5" fill="#463ecc"/>
<circle cx="354.2" cy="42.5" r="10.5" fill="#453dc9"/>
<circle cx="382.5" cy="42.5" r="10.5" fill="#4e45e3"/>
<circle cx="410.8" cy="42.5" r="10.5" fill="#4c43dc"/>
<circle cx="70.8" cy="70.8" r="10.5" fill="#4940d3"/>
<circle cx="439.2" cy="70.8" r="10.5" fill="#3e36b6"/>
<circle cx="42.5" cy="99.2" r="10.5" fill="#3a33ad"/>
<circle cx="467.5" cy="99.2" r="10.5" fill="#3a33ab"/>
<circle cx="42.5" cy="127.5" r="10.5" fill="#3e37b7"/>
<circle cx="127.5" cy="127.5" r="10.5" fill="#d34b0c"/>
<circle cx="155.8" cy="127.5" r="10.5" fill="#d64c0c"/>
<circle cx="184.2" cy="127.5" r="10.5" fill="#dd500c"/>
<circle cx="325.8" cy="127.5" r="10.5" fill="#524edc"/>
<circle cx="354.2" cy="127.5" r="10.5" fill="#5958e5"/>
<circle cx="382.5" cy="127.5" r="10.5" fill="#6366f1"/>
<circle cx="467.5" cy="127.5" r="10.5" fill="#4b42d9"/>
<circle cx="42.5" cy="155.8" r="10.5" fill="#3b34af"/>
<circle cx="127.5" cy="155.8" r="10.5" fill="#e0520c"/>
<circle cx="184.2" cy="155.8" r="10.5" fill="#e1530c"/>
<circle cx="325.8" cy="155.8" r="10.5" fill="#5857e4"/>
<circle cx="382.5" cy="155.8" r="10.5" fill="#5d5eea"/>
<circle cx="467.5" cy="155.8" r="10.5" fill="#453dc9"/>
<circle cx="42.5" cy="184.2" r="10.5" fill="#463ecd"/>
<circle cx="127.5" cy="184.2" r="10.5" fill="#c8440c"/>
<circle cx="155.8" cy="184.2" r="10.5" fill="#c4420c"/>
<circle cx="184.2" cy="184.2" r="10.5" fill="#d94e0c"/>
<circle cx="325.8" cy="184.2" r="10.5" fill="#453bcc"/>
<circle cx="354.2" cy="184.2" r="10.5" fill="#5856e3"/>
<circle cx="382.5" cy="184.2" r="10.5" fill="#4c45d5"/>
<circle cx="467.5" cy="184.2" r="10.5" fill="#4038bc"/>
<circle cx="42.5" cy="212.5" r="10.5" fill="#443cc7"/>
<circle cx="155.8" cy="212.5" r="10.5" fill="#f16200"/>
<circle cx="354.2" cy="212.5" r="10.5" fill="#ec5f00"/>
<circle cx="467.5" cy="212.5" r="10.5" fill="#3931a7"/>
<circle cx="42.5" cy="240.8" r="10.5" fill="#3831a7"/>
<circle cx="155.8" cy="240.8" r="10.5" fill="#f76600"/>
<circle cx="354.2" cy="240.8" r="10.5" fill="#eb5f00"/>
<circle cx="467.5" cy="240.8" r="10.5" fill="#3c35b1"/>
<circle cx="42.5" cy="269.2" r="10.5" fill="#473fd0"/>
<circle cx="155.8" cy="269.2" r="10.5" fill="#e95d00"/>
<circle cx="354.2" cy="269.2" r="10.5" fill="#e95e00"/>
<circle cx="467.5" cy="269.2" r="10.5" fill="#4139bf"/>
<circle cx="42.5" cy="297.5" r="10.5" fill="#3f37b8"/>
<circle cx="155.8" cy="297.5" r="10.5" fill="#f36300"/>
<circle cx="184.2" cy="297.5" r="10.5" fill="#ea5e00"/>
<circle cx="212.5" cy="297.5" r="10.5" fill="#fc6800"/>
<circle cx="240.8" cy="297.5" r="10.5" fill="#f16200"/>
<circle cx="269.2" cy="297.5" r="10.5" fill="#ee6000"/>
<circle cx="297.5" cy="297.5" r="10.5" fill="#eb5f00"/>
<circle cx="325.8" cy="297.5" r="10.5" fill="#fa6700"/>
<circle cx="467.5" cy="297.5" r="10.5" fill="#453dca"/>
<circle cx="42.5" cy="325.8" r="10.5" fill="#423ac1"/>
<circle cx="127.5" cy="325.8" r="10.5" fill="#e5550c"/>
<circle cx="155.8" cy="325.8" r="10.5" fill="#da4f0c"/>
<circle cx="184.2" cy="325.8" r="10.5" fill="#d44b0c"/>
<circle cx="467.5" cy="325.8" r="10.5" fill="#3e37b7"/>
<circle cx="42.5" cy="354.2" r="10.5" fill="#4a41d7"/>
<circle cx="127.5" cy="354.2" r="10.5" fill="#cf480c"/>
<circle cx="184.2" cy="354.2" r="10.5" fill="#e4540c"/>
<circle cx="467.5" cy="354.2" r="10.5" fill="#483fd1"/>
<circle cx="42.5" cy="382.5" r="10.5" fill="#3d35b3"/>
<circle cx="127.5" cy="382.5" r="10.5" fill="#de510c"/>
<circle cx="155.8" cy="382.5" r="10.5" fill="#d94e0c"/>
<circle cx="184.2" cy="382.5" r="10.5" fill="#e8570c"/>
<circle cx="467.5" cy="382.5" r="10.5" fill="#453dc9"/>
<circle cx="42.5" cy="410.8" r="10.5" fill="#443cc6"/>
<circle cx="467.5" cy="410.8" r="10.5" fill="#4c43dd"/>
<circle cx="70.8" cy="439.2" r="10.5" fill="#4f46e4"/>
<circle cx="439.2" cy="439.2" r="10.5" fill="#3a33ab"/>
<circle cx="99.2" cy="467.5" r="10.5" fill="#3b33ad"/>
<circle cx="127.5" cy="467.5" r="10.5" fill="#3932a8"/>
<circle cx="155.8" cy="467.5" r="10.5" fill="#4038bb"/>
<circle cx="184.2" cy="467.5" r="10.5" fill="#433bc4"/>
<circle cx="212.5" cy="467.5" r="10.5" fill="#413ac0"/>
<circle cx="240.8" cy="467.5" r="10.5" fill="#3932a9"/>
<circle cx="269.2" cy="467.5" r="10.5" fill="#4b42da"/>
<circle cx="297.5" cy="467.5" r="10.5" fill="#3c35b2"/>
<circle cx="325.8" cy="467.5" r="10.5" fill="#4e45e2"/>
<circle cx="354.2" cy="467.5" r="10.5" fill="#4139bd"/>
<circle cx="382.5" cy="467.5" r="10.5" fill="#3831a6"/>
<circle cx="410.8" cy="467.5" r="10.5" fill="#3e36b6"/>
</svg>
